# xmcd
#
# Track frame offsets: 
#        150
#        7366
#        15721
#        23813
#        34523
#        42699
#        51420
#        61769
#        69763
#        78762
#        92022
#        99154
#        109000
#        121606
#        133763
#
# Disc length: 1892 seconds
#
# Revision: 0
# Processed by: cddbd v1.5.1PL2 Copyright (c) Steve Scherf et al.
# Submitted via: ExactAudioCopy v0.95a5
#
DISCID=b607620f
DTITLE=Cedar Grove - 15 Old Time Instrumental Favorites
DYEAR=1993
DGENRE=Bluegrass
TTITLE0=Dixie Breakdown
TTITLE1=Caoozey
TTITLE2=Lonesome Banjo
TTITLE3=Grandfather's Clock
TTITLE4=Cripple Creek
TTITLE5=Arkansas Traveler
TTITLE6=Rusty Nail
TTITLE7=John Hardy
TTITLE8=Spanish Grass
TTITLE9=Double Banjo Blues
TTITLE10=Follow The Leader
TTITLE11=Lady Of Spain
TTITLE12=Wildwood Flower
TTITLE13=Old Spinnin' Wheel
TTITLE14=Chokin' The Strings
EXTD=
EXTT0=
EXTT1=
EXTT2=
EXTT3=
EXTT4=
EXTT5=
EXTT6=
EXTT7=
EXTT8=
EXTT9=
EXTT10=
EXTT11=
EXTT12=
EXTT13=
EXTT14=
PLAYORDER=
